<svg xmlns="http://www.w3.org/2000/svg" viewBox="0 0 68 21" fill="none" class="svelte-vywflk" width="50" height="15"><path fill="#060708d6" d="M4.3 20h-4V1h6.5l4.4 13.1h.6l4.5-13h6.4v19h-4V6h-.6l-5 14H9.7L5 6h-.6v14ZM35.3 20.4c-1.8 0-3.4-.4-4.8-1.2a9 9 0 0 1-3.3-3.5 11 11 0 0 1-1.2-5.1c0-2 .4-3.6 1.2-5C28 4 29 2.7 30.5 2A9 9 0 0 1 35.3.7c1.6 0 3 .4 4.2 1 1.2.7 2.2 1.5 3 2.5l.9-3.1h3.1v19h-3.1l-.9-3c-.8.9-1.8 1.7-3 2.4-1.2.6-2.6 1-4.2 1Zm1-3.7c1.8 0 3.2-.6 4.3-1.7a6 6 0 0 0 1.7-4.4 6 6 0 0 0-1.7-4.4 5.7 5.7 0 0 0-4.3-1.7c-1.7 0-3.2.6-4.3 1.7a6 6 0 0 0-1.6 4.4c0 1.8.6 3.3 1.6 4.4a5.7 5.7 0 0 0 4.3 1.7ZM53.8 20H49l6-9.6L49.8 1h4.8L58 7.5h.7L62.5 1H67l-5.3 9 6 10h-5l-4-7.2h-.7L53.8 20Z" class="svelte-vywflk"></path></svg>